<?xml version="1.0" encoding="UTF-8" standalone="no"?>
<!DOCTYPE svg PUBLIC "-//W3C//DTD SVG 1.1//EN"
 "http://www.w3.org/Graphics/SVG/1.1/DTD/svg11.dtd">
<!-- Generated by graphviz version 5.0.0 (20220707.1540)
 -->
<!-- Title: dependencies Pages: 1 -->
<svg width="2582pt" height="253pt"
 viewBox="0.00 0.00 2582.00 252.80" xmlns="http://www.w3.org/2000/svg" xmlns:xlink="http://www.w3.org/1999/xlink">
<g id="graph0" class="graph" transform="scale(1 1) rotate(0) translate(4 248.8)">
<title>dependencies</title>
<polygon fill="white" stroke="transparent" points="-4,4 -4,-248.8 2578,-248.8 2578,4 -4,4"/>
<text text-anchor="middle" x="1287" y="-8.2" font-family="sans-serif" font-size="14.00">dependencies</text>
<g id="clust1" class="cluster">
<title>cluster_AppModule</title>
<polygon fill="none" stroke="black" stroke-dasharray="1,5" points="8,-32.8 8,-236.8 2222,-236.8 2222,-32.8 8,-32.8"/>
</g>
<g id="clust2" class="cluster">
<title>cluster_AppModule_declarations</title>
<polygon fill="none" stroke="black" points="322,-40.8 322,-92.8 714,-92.8 714,-40.8 322,-40.8"/>
</g>
<g id="clust6" class="cluster">
<title>cluster_AppModule_imports</title>
<polygon fill="none" stroke="black" points="722,-40.8 722,-92.8 2214,-92.8 2214,-40.8 722,-40.8"/>
</g>
<g id="clust8" class="cluster">
<title>cluster_AppModule_bootstrap</title>
<polygon fill="none" stroke="black" points="1097,-176.8 1097,-228.8 1221,-228.8 1221,-176.8 1097,-176.8"/>
</g>
<g id="clust9" class="cluster">
<title>cluster_AppModule_providers</title>
<polygon fill="none" stroke="black" points="16,-40.8 16,-92.8 314,-92.8 314,-40.8 16,-40.8"/>
</g>
<g id="clust10" class="cluster">
<title>cluster_AppRoutingModule</title>
<polygon fill="none" stroke="black" stroke-dasharray="1,5" points="2230,-100.8 2230,-168.8 2566,-168.8 2566,-100.8 2230,-100.8"/>
</g>
<g id="clust12" class="cluster">
<title>cluster_AppRoutingModule_imports</title>
<polygon fill="none" stroke="black" points="2364,-108.8 2364,-160.8 2558,-160.8 2558,-108.8 2364,-108.8"/>
</g>
<g id="clust13" class="cluster">
<title>cluster_AppRoutingModule_exports</title>
<polygon fill="none" stroke="black" points="2238,-108.8 2238,-160.8 2356,-160.8 2356,-108.8 2238,-108.8"/>
</g>
<!-- AppComponent -->
<g id="node1" class="node">
<title>AppComponent</title>
<polygon fill="#ffffb3" stroke="black" points="705.94,-84.8 600.06,-84.8 600.06,-48.8 705.94,-48.8 705.94,-84.8"/>
<text text-anchor="middle" x="653" y="-62.6" font-family="Times,serif" font-size="14.00">AppComponent</text>
</g>
<!-- AppModule -->
<g id="node4" class="node">
<title>AppModule</title>
<polygon fill="#8dd3c7" stroke="black" points="1200.66,-152.8 1197.66,-156.8 1176.66,-156.8 1173.66,-152.8 1117.34,-152.8 1117.34,-116.8 1200.66,-116.8 1200.66,-152.8"/>
<text text-anchor="middle" x="1159" y="-130.6" font-family="Times,serif" font-size="14.00">AppModule</text>
</g>
<!-- AppComponent&#45;&gt;AppModule -->
<g id="edge1" class="edge">
<title>AppComponent&#45;&gt;AppModule</title>
<path fill="none" stroke="black" d="M653,-85.07C653,-103.36 653,-128.8 653,-128.8 653,-128.8 1107.16,-128.8 1107.16,-128.8"/>
<polygon fill="black" stroke="black" points="1107.16,-132.3 1117.16,-128.8 1107.16,-125.3 1107.16,-132.3"/>
</g>
<!-- NavbarComponent -->
<g id="node2" class="node">
<title>NavbarComponent</title>
<polygon fill="#ffffb3" stroke="black" points="582.03,-84.8 459.97,-84.8 459.97,-48.8 582.03,-48.8 582.03,-84.8"/>
<text text-anchor="middle" x="521" y="-62.6" font-family="Times,serif" font-size="14.00">NavbarComponent</text>
</g>
<!-- NavbarComponent&#45;&gt;AppModule -->
<g id="edge2" class="edge">
<title>NavbarComponent&#45;&gt;AppModule</title>
<path fill="none" stroke="black" d="M521,-84.83C521,-104.38 521,-132.8 521,-132.8 521,-132.8 1107.14,-132.8 1107.14,-132.8"/>
<polygon fill="black" stroke="black" points="1107.14,-136.3 1117.14,-132.8 1107.14,-129.3 1107.14,-136.3"/>
</g>
<!-- BodyComponent -->
<g id="node3" class="node">
<title>BodyComponent</title>
<polygon fill="#ffffb3" stroke="black" points="441.67,-84.8 330.33,-84.8 330.33,-48.8 441.67,-48.8 441.67,-84.8"/>
<text text-anchor="middle" x="386" y="-62.6" font-family="Times,serif" font-size="14.00">BodyComponent</text>
</g>
<!-- BodyComponent&#45;&gt;AppModule -->
<g id="edge3" class="edge">
<title>BodyComponent&#45;&gt;AppModule</title>
<path fill="none" stroke="black" d="M386,-84.83C386,-105.57 386,-136.8 386,-136.8 386,-136.8 1107.17,-136.8 1107.17,-136.8"/>
<polygon fill="black" stroke="black" points="1107.17,-140.3 1117.17,-136.8 1107.17,-133.3 1107.17,-140.3"/>
</g>
<!-- AppComponent  -->
<g id="node15" class="node">
<title>AppComponent </title>
<polygon fill="#80b1d3" stroke="black" points="1213.44,-220.8 1104.56,-220.8 1104.56,-184.8 1213.44,-184.8 1213.44,-220.8"/>
<text text-anchor="middle" x="1159" y="-198.6" font-family="Times,serif" font-size="14.00">AppComponent </text>
</g>
<!-- AppModule&#45;&gt;AppComponent  -->
<g id="edge15" class="edge">
<title>AppModule&#45;&gt;AppComponent </title>
<path fill="none" stroke="black" stroke-dasharray="1,5" d="M1159,-153.02C1159,-153.02 1159,-174.53 1159,-174.53"/>
<polygon fill="black" stroke="black" points="1155.5,-174.53 1159,-184.53 1162.5,-174.53 1155.5,-174.53"/>
</g>
<!-- BrowserAnimationsModule -->
<g id="node5" class="node">
<title>BrowserAnimationsModule</title>
<polygon fill="#8dd3c7" stroke="black" points="2059.32,-84.8 2056.32,-88.8 2035.32,-88.8 2032.32,-84.8 1886.68,-84.8 1886.68,-48.8 2059.32,-48.8 2059.32,-84.8"/>
<text text-anchor="middle" x="1973" y="-62.6" font-family="Times,serif" font-size="14.00">BrowserAnimationsModule</text>
</g>
<!-- BrowserAnimationsModule&#45;&gt;AppModule -->
<g id="edge4" class="edge">
<title>BrowserAnimationsModule&#45;&gt;AppModule</title>
<path fill="none" stroke="black" d="M1973,-85.05C1973,-107.82 1973,-143.8 1973,-143.8 1973,-143.8 1210.77,-143.8 1210.77,-143.8"/>
<polygon fill="black" stroke="black" points="1210.77,-140.3 1200.77,-143.8 1210.77,-147.3 1210.77,-140.3"/>
</g>
<!-- TagCloudComponent -->
<g id="node6" class="node">
<title>TagCloudComponent</title>
<polygon fill="#8dd3c7" stroke="black" points="1868.82,-84.8 1865.82,-88.8 1844.82,-88.8 1841.82,-84.8 1731.18,-84.8 1731.18,-48.8 1868.82,-48.8 1868.82,-84.8"/>
<text text-anchor="middle" x="1800" y="-62.6" font-family="Times,serif" font-size="14.00">TagCloudComponent</text>
</g>
<!-- TagCloudComponent&#45;&gt;AppModule -->
<g id="edge5" class="edge">
<title>TagCloudComponent&#45;&gt;AppModule</title>
<path fill="none" stroke="black" d="M1822.89,-84.84C1822.89,-106.46 1822.89,-139.8 1822.89,-139.8 1822.89,-139.8 1210.78,-139.8 1210.78,-139.8"/>
<polygon fill="black" stroke="black" points="1210.78,-136.3 1200.78,-139.8 1210.78,-143.3 1210.78,-136.3"/>
</g>
<!-- TagCloudComponent&#45;&gt;AppModule -->
<g id="edge12" class="edge">
<title>TagCloudComponent&#45;&gt;AppModule</title>
<path fill="none" stroke="black" d="M1777.11,-85.02C1777.11,-105.17 1777.11,-134.8 1777.11,-134.8 1777.11,-134.8 1211,-134.8 1211,-134.8"/>
<polygon fill="black" stroke="black" points="1211,-131.3 1201,-134.8 1211,-138.3 1211,-131.3"/>
</g>
<!-- NgChartsModule -->
<g id="node7" class="node">
<title>NgChartsModule</title>
<polygon fill="#8dd3c7" stroke="black" points="1713.71,-84.8 1710.71,-88.8 1689.71,-88.8 1686.71,-84.8 1600.29,-84.8 1600.29,-48.8 1713.71,-48.8 1713.71,-84.8"/>
<text text-anchor="middle" x="1657" y="-62.6" font-family="Times,serif" font-size="14.00">NgChartsModule</text>
</g>
<!-- NgChartsModule&#45;&gt;AppModule -->
<g id="edge6" class="edge">
<title>NgChartsModule&#45;&gt;AppModule</title>
<path fill="none" stroke="black" d="M1657,-84.97C1657,-103.89 1657,-130.8 1657,-130.8 1657,-130.8 1211.03,-130.8 1211.03,-130.8"/>
<polygon fill="black" stroke="black" points="1211.03,-127.3 1201.03,-130.8 1211.03,-134.3 1211.03,-127.3"/>
</g>
<!-- BrowserModule -->
<g id="node8" class="node">
<title>BrowserModule</title>
<polygon fill="#8dd3c7" stroke="black" points="1582.49,-84.8 1579.49,-88.8 1558.49,-88.8 1555.49,-84.8 1475.51,-84.8 1475.51,-48.8 1582.49,-48.8 1582.49,-84.8"/>
<text text-anchor="middle" x="1529" y="-62.6" font-family="Times,serif" font-size="14.00">BrowserModule</text>
</g>
<!-- BrowserModule&#45;&gt;AppModule -->
<g id="edge7" class="edge">
<title>BrowserModule&#45;&gt;AppModule</title>
<path fill="none" stroke="black" d="M1529,-84.82C1529,-102.17 1529,-125.8 1529,-125.8 1529,-125.8 1210.72,-125.8 1210.72,-125.8"/>
<polygon fill="black" stroke="black" points="1210.72,-122.3 1200.72,-125.8 1210.72,-129.3 1210.72,-122.3"/>
</g>
<!-- FormsModule -->
<g id="node9" class="node">
<title>FormsModule</title>
<polygon fill="#8dd3c7" stroke="black" points="1457.84,-84.8 1454.84,-88.8 1433.84,-88.8 1430.84,-84.8 1362.16,-84.8 1362.16,-48.8 1457.84,-48.8 1457.84,-84.8"/>
<text text-anchor="middle" x="1410" y="-62.6" font-family="Times,serif" font-size="14.00">FormsModule</text>
</g>
<!-- FormsModule&#45;&gt;AppModule -->
<g id="edge8" class="edge">
<title>FormsModule&#45;&gt;AppModule</title>
<path fill="none" stroke="black" d="M1410,-84.81C1410,-100.85 1410,-121.8 1410,-121.8 1410,-121.8 1210.73,-121.8 1210.73,-121.8"/>
<polygon fill="black" stroke="black" points="1210.73,-118.3 1200.73,-121.8 1210.73,-125.3 1210.73,-118.3"/>
</g>
<!-- AppRoutingModule -->
<g id="node10" class="node">
<title>AppRoutingModule</title>
<polygon fill="#8dd3c7" stroke="black" points="2206.28,-84.8 2203.28,-88.8 2182.28,-88.8 2179.28,-84.8 2077.72,-84.8 2077.72,-48.8 2206.28,-48.8 2206.28,-84.8"/>
<text text-anchor="middle" x="2142" y="-62.6" font-family="Times,serif" font-size="14.00">AppRoutingModule</text>
</g>
<!-- AppRoutingModule&#45;&gt;AppModule -->
<g id="edge9" class="edge">
<title>AppRoutingModule&#45;&gt;AppModule</title>
<path fill="none" stroke="black" d="M2142,-85C2142,-109.16 2142,-148.8 2142,-148.8 2142,-148.8 1210.92,-148.8 1210.92,-148.8"/>
<polygon fill="black" stroke="black" points="1210.92,-145.3 1200.92,-148.8 1210.92,-152.3 1210.92,-145.3"/>
</g>
<!-- RouterModule  -->
<g id="node19" class="node">
<title>RouterModule </title>
<polygon fill="#fb8072" stroke="black" points="2347.66,-152.8 2246.34,-152.8 2246.34,-116.8 2347.66,-116.8 2347.66,-152.8"/>
<text text-anchor="middle" x="2297" y="-130.6" font-family="Times,serif" font-size="14.00">RouterModule </text>
</g>
<!-- AppRoutingModule&#45;&gt;RouterModule  -->
<g id="edge19" class="edge">
<title>AppRoutingModule&#45;&gt;RouterModule </title>
<path fill="none" stroke="black" stroke-dasharray="5,2" d="M2206.39,-72.8C2248.97,-72.8 2297,-72.8 2297,-72.8 2297,-72.8 2297,-106.53 2297,-106.53"/>
<polygon fill="black" stroke="black" points="2293.5,-106.53 2297,-116.53 2300.5,-106.53 2293.5,-106.53"/>
</g>
<!-- NgbModule -->
<g id="node11" class="node">
<title>NgbModule</title>
<polygon fill="#8dd3c7" stroke="black" points="1119.66,-84.8 1116.66,-88.8 1095.66,-88.8 1092.66,-84.8 1036.34,-84.8 1036.34,-48.8 1119.66,-48.8 1119.66,-84.8"/>
<text text-anchor="middle" x="1078" y="-62.6" font-family="Times,serif" font-size="14.00">NgbModule</text>
</g>
<!-- NgbModule&#45;&gt;AppModule -->
<g id="edge10" class="edge">
<title>NgbModule&#45;&gt;AppModule</title>
<path fill="none" stroke="black" d="M1110.85,-85C1110.85,-109.16 1110.85,-148.8 1110.85,-148.8 1110.85,-148.8 1111.48,-148.8 1111.48,-148.8"/>
<polygon fill="black" stroke="black" points="1107.14,-152.3 1117.14,-148.8 1107.14,-145.3 1107.14,-152.3"/>
</g>
<!-- HttpClientModule -->
<g id="node12" class="node">
<title>HttpClientModule</title>
<polygon fill="#8dd3c7" stroke="black" points="1018.16,-84.8 1015.16,-88.8 994.16,-88.8 991.16,-84.8 899.84,-84.8 899.84,-48.8 1018.16,-48.8 1018.16,-84.8"/>
<text text-anchor="middle" x="959" y="-62.6" font-family="Times,serif" font-size="14.00">HttpClientModule</text>
</g>
<!-- HttpClientModule&#45;&gt;AppModule -->
<g id="edge11" class="edge">
<title>HttpClientModule&#45;&gt;AppModule</title>
<path fill="none" stroke="black" d="M959,-85.08C959,-100.75 959,-120.8 959,-120.8 959,-120.8 1107.07,-120.8 1107.07,-120.8"/>
<polygon fill="black" stroke="black" points="1107.07,-124.3 1117.07,-120.8 1107.07,-117.3 1107.07,-124.3"/>
</g>
<!-- ToastrModule.forRoot() -->
<g id="node13" class="node">
<title>ToastrModule.forRoot()</title>
<polygon fill="#8dd3c7" stroke="black" points="881.69,-84.8 878.69,-88.8 857.69,-88.8 854.69,-84.8 730.31,-84.8 730.31,-48.8 881.69,-48.8 881.69,-84.8"/>
<text text-anchor="middle" x="806" y="-62.6" font-family="Times,serif" font-size="14.00">ToastrModule.forRoot()</text>
</g>
<!-- ToastrModule.forRoot()&#45;&gt;AppModule -->
<g id="edge13" class="edge">
<title>ToastrModule.forRoot()&#45;&gt;AppModule</title>
<path fill="none" stroke="black" d="M806,-84.83C806,-101.86 806,-124.8 806,-124.8 806,-124.8 1107.12,-124.8 1107.12,-124.8"/>
<polygon fill="black" stroke="black" points="1107.12,-128.3 1117.12,-124.8 1107.12,-121.3 1107.12,-128.3"/>
</g>
<!-- NgxSpinnerModule.forRoot(args) -->
<g id="node14" class="node">
<title>NgxSpinnerModule.forRoot(args)</title>
<polygon fill="#8dd3c7" stroke="black" points="1344.41,-84.8 1341.41,-88.8 1320.41,-88.8 1317.41,-84.8 1137.59,-84.8 1137.59,-48.8 1344.41,-48.8 1344.41,-84.8"/>
<text text-anchor="middle" x="1241" y="-62.6" font-family="Times,serif" font-size="14.00">NgxSpinnerModule.forRoot(args)</text>
</g>
<!-- NgxSpinnerModule.forRoot(args)&#45;&gt;AppModule -->
<g id="edge14" class="edge">
<title>NgxSpinnerModule.forRoot(args)&#45;&gt;AppModule</title>
<path fill="none" stroke="black" d="M1169.19,-85.02C1169.19,-85.02 1169.19,-106.53 1169.19,-106.53"/>
<polygon fill="black" stroke="black" points="1165.69,-106.53 1169.19,-116.53 1172.69,-106.53 1165.69,-106.53"/>
</g>
<!-- IawsService -->
<g id="node16" class="node">
<title>IawsService</title>
<ellipse fill="#fdb462" stroke="black" cx="248" cy="-66.8" rx="58.46" ry="18"/>
<text text-anchor="middle" x="248" y="-62.6" font-family="Times,serif" font-size="14.00">IawsService</text>
</g>
<!-- IawsService&#45;&gt;AppModule -->
<g id="edge16" class="edge">
<title>IawsService&#45;&gt;AppModule</title>
<path fill="none" stroke="black" d="M248,-85.09C248,-107.01 248,-140.8 248,-140.8 248,-140.8 1107.19,-140.8 1107.19,-140.8"/>
<polygon fill="black" stroke="black" points="1107.19,-144.3 1117.19,-140.8 1107.19,-137.3 1107.19,-144.3"/>
</g>
<!-- ExporterService -->
<g id="node17" class="node">
<title>ExporterService</title>
<ellipse fill="#fdb462" stroke="black" cx="98" cy="-66.8" rx="73.56" ry="18"/>
<text text-anchor="middle" x="98" y="-62.6" font-family="Times,serif" font-size="14.00">ExporterService</text>
</g>
<!-- ExporterService&#45;&gt;AppModule -->
<g id="edge17" class="edge">
<title>ExporterService&#45;&gt;AppModule</title>
<path fill="none" stroke="black" d="M98,-84.89C98,-107.93 98,-144.8 98,-144.8 98,-144.8 1107.08,-144.8 1107.08,-144.8"/>
<polygon fill="black" stroke="black" points="1107.08,-148.3 1117.08,-144.8 1107.08,-141.3 1107.08,-148.3"/>
</g>
<!-- RouterModule.forRoot(args) -->
<g id="node18" class="node">
<title>RouterModule.forRoot(args)</title>
<polygon fill="#8dd3c7" stroke="black" points="2549.86,-152.8 2546.86,-156.8 2525.86,-156.8 2522.86,-152.8 2372.14,-152.8 2372.14,-116.8 2549.86,-116.8 2549.86,-152.8"/>
<text text-anchor="middle" x="2461" y="-130.6" font-family="Times,serif" font-size="14.00">RouterModule.forRoot(args)</text>
</g>
<!-- RouterModule.forRoot(args)&#45;&gt;AppRoutingModule -->
<g id="edge18" class="edge">
<title>RouterModule.forRoot(args)&#45;&gt;AppRoutingModule</title>
<path fill="none" stroke="black" d="M2461,-116.51C2461,-94.59 2461,-60.8 2461,-60.8 2461,-60.8 2216.55,-60.8 2216.55,-60.8"/>
<polygon fill="black" stroke="black" points="2216.55,-57.3 2206.55,-60.8 2216.55,-64.3 2216.55,-57.3"/>
</g>
</g>
</svg>
