<?xml version="1.0" encoding="UTF-8" standalone="no"?>
<!DOCTYPE svg PUBLIC "-//W3C//DTD SVG 1.1//EN"
 "http://www.w3.org/Graphics/SVG/1.1/DTD/svg11.dtd">
<!-- Generated by graphviz version 5.0.0 (20220707.1540)
 -->
<!-- Title: dependencies Pages: 1 -->
<svg width="2237pt" height="247pt"
 viewBox="0.00 0.00 2237.00 246.80" xmlns="http://www.w3.org/2000/svg" xmlns:xlink="http://www.w3.org/1999/xlink">
<g id="graph0" class="graph" transform="scale(1 1) rotate(0) translate(4 242.8)">
<title>dependencies</title>
<polygon fill="white" stroke="transparent" points="-4,4 -4,-242.8 2233,-242.8 2233,4 -4,4"/>
<text text-anchor="middle" x="1114.5" y="-8.2" font-family="sans-serif" font-size="14.00">dependencies</text>
<g id="clust1" class="cluster">
<title>cluster_AppModule</title>
<polygon fill="none" stroke="black" stroke-dasharray="1,5" points="8,-32.8 8,-230.8 2221,-230.8 2221,-32.8 8,-32.8"/>
</g>
<g id="clust2" class="cluster">
<title>cluster_AppModule_declarations</title>
<polygon fill="none" stroke="black" points="1821,-40.8 1821,-92.8 2213,-92.8 2213,-40.8 1821,-40.8"/>
</g>
<g id="clust6" class="cluster">
<title>cluster_AppModule_imports</title>
<polygon fill="none" stroke="black" points="322,-40.8 322,-92.8 1813,-92.8 1813,-40.8 322,-40.8"/>
</g>
<g id="clust8" class="cluster">
<title>cluster_AppModule_bootstrap</title>
<polygon fill="none" stroke="black" points="1153,-170.8 1153,-222.8 1277,-222.8 1277,-170.8 1153,-170.8"/>
</g>
<g id="clust9" class="cluster">
<title>cluster_AppModule_providers</title>
<polygon fill="none" stroke="black" points="16,-40.8 16,-92.8 314,-92.8 314,-40.8 16,-40.8"/>
</g>
<!-- AppComponent -->
<g id="node1" class="node">
<title>AppComponent</title>
<polygon fill="#ffffb3" stroke="black" points="2204.94,-84.8 2099.06,-84.8 2099.06,-48.8 2204.94,-48.8 2204.94,-84.8"/>
<text text-anchor="middle" x="2152" y="-62.6" font-family="Times,serif" font-size="14.00">AppComponent</text>
</g>
<!-- AppModule -->
<g id="node4" class="node">
<title>AppModule</title>
<polygon fill="#8dd3c7" stroke="black" points="1256.66,-149.8 1253.66,-153.8 1232.66,-153.8 1229.66,-149.8 1173.34,-149.8 1173.34,-113.8 1256.66,-113.8 1256.66,-149.8"/>
<text text-anchor="middle" x="1215" y="-127.6" font-family="Times,serif" font-size="14.00">AppModule</text>
</g>
<!-- AppComponent&#45;&gt;AppModule -->
<g id="edge1" class="edge">
<title>AppComponent&#45;&gt;AppModule</title>
<path fill="none" stroke="black" d="M2152,-85.12C2152,-108.46 2152,-145.8 2152,-145.8 2152,-145.8 1266.78,-145.8 1266.78,-145.8"/>
<polygon fill="black" stroke="black" points="1266.78,-142.3 1256.78,-145.8 1266.78,-149.3 1266.78,-142.3"/>
</g>
<!-- NavbarComponent -->
<g id="node2" class="node">
<title>NavbarComponent</title>
<polygon fill="#ffffb3" stroke="black" points="2081.03,-84.8 1958.97,-84.8 1958.97,-48.8 2081.03,-48.8 2081.03,-84.8"/>
<text text-anchor="middle" x="2020" y="-62.6" font-family="Times,serif" font-size="14.00">NavbarComponent</text>
</g>
<!-- NavbarComponent&#45;&gt;AppModule -->
<g id="edge2" class="edge">
<title>NavbarComponent&#45;&gt;AppModule</title>
<path fill="none" stroke="black" d="M2020,-85.09C2020,-107.01 2020,-140.8 2020,-140.8 2020,-140.8 1266.87,-140.8 1266.87,-140.8"/>
<polygon fill="black" stroke="black" points="1266.87,-137.3 1256.87,-140.8 1266.87,-144.3 1266.87,-137.3"/>
</g>
<!-- BodyComponent -->
<g id="node3" class="node">
<title>BodyComponent</title>
<polygon fill="#ffffb3" stroke="black" points="1940.67,-84.8 1829.33,-84.8 1829.33,-48.8 1940.67,-48.8 1940.67,-84.8"/>
<text text-anchor="middle" x="1885" y="-62.6" font-family="Times,serif" font-size="14.00">BodyComponent</text>
</g>
<!-- BodyComponent&#45;&gt;AppModule -->
<g id="edge3" class="edge">
<title>BodyComponent&#45;&gt;AppModule</title>
<path fill="none" stroke="black" d="M1885,-84.83C1885,-105.57 1885,-136.8 1885,-136.8 1885,-136.8 1266.91,-136.8 1266.91,-136.8"/>
<polygon fill="black" stroke="black" points="1266.91,-133.3 1256.91,-136.8 1266.91,-140.3 1266.91,-133.3"/>
</g>
<!-- AppComponent  -->
<g id="node15" class="node">
<title>AppComponent </title>
<polygon fill="#80b1d3" stroke="black" points="1269.44,-214.8 1160.56,-214.8 1160.56,-178.8 1269.44,-178.8 1269.44,-214.8"/>
<text text-anchor="middle" x="1215" y="-192.6" font-family="Times,serif" font-size="14.00">AppComponent </text>
</g>
<!-- AppModule&#45;&gt;AppComponent  -->
<g id="edge15" class="edge">
<title>AppModule&#45;&gt;AppComponent </title>
<path fill="none" stroke="black" stroke-dasharray="1,5" d="M1215,-149.91C1215,-149.91 1215,-168.79 1215,-168.79"/>
<polygon fill="black" stroke="black" points="1211.5,-168.79 1215,-178.79 1218.5,-168.79 1211.5,-168.79"/>
</g>
<!-- BrowserAnimationsModule -->
<g id="node5" class="node">
<title>BrowserAnimationsModule</title>
<polygon fill="#8dd3c7" stroke="black" points="1805.32,-84.8 1802.32,-88.8 1781.32,-88.8 1778.32,-84.8 1632.68,-84.8 1632.68,-48.8 1805.32,-48.8 1805.32,-84.8"/>
<text text-anchor="middle" x="1719" y="-62.6" font-family="Times,serif" font-size="14.00">BrowserAnimationsModule</text>
</g>
<!-- BrowserAnimationsModule&#45;&gt;AppModule -->
<g id="edge4" class="edge">
<title>BrowserAnimationsModule&#45;&gt;AppModule</title>
<path fill="none" stroke="black" d="M1719,-84.91C1719,-104.14 1719,-131.8 1719,-131.8 1719,-131.8 1266.67,-131.8 1266.67,-131.8"/>
<polygon fill="black" stroke="black" points="1266.67,-128.3 1256.67,-131.8 1266.67,-135.3 1266.67,-128.3"/>
</g>
<!-- TagCloudComponent -->
<g id="node6" class="node">
<title>TagCloudComponent</title>
<polygon fill="#8dd3c7" stroke="black" points="1614.82,-84.8 1611.82,-88.8 1590.82,-88.8 1587.82,-84.8 1477.18,-84.8 1477.18,-48.8 1614.82,-48.8 1614.82,-84.8"/>
<text text-anchor="middle" x="1546" y="-62.6" font-family="Times,serif" font-size="14.00">TagCloudComponent</text>
</g>
<!-- TagCloudComponent&#45;&gt;AppModule -->
<g id="edge5" class="edge">
<title>TagCloudComponent&#45;&gt;AppModule</title>
<path fill="none" stroke="black" d="M1568.89,-85.1C1568.89,-103.07 1568.89,-127.8 1568.89,-127.8 1568.89,-127.8 1266.99,-127.8 1266.99,-127.8"/>
<polygon fill="black" stroke="black" points="1266.99,-124.3 1256.99,-127.8 1266.99,-131.3 1266.99,-124.3"/>
</g>
<!-- TagCloudComponent&#45;&gt;AppModule -->
<g id="edge12" class="edge">
<title>TagCloudComponent&#45;&gt;AppModule</title>
<path fill="none" stroke="black" d="M1523.11,-84.83C1523.11,-101.2 1523.11,-122.8 1523.11,-122.8 1523.11,-122.8 1266.87,-122.8 1266.87,-122.8"/>
<polygon fill="black" stroke="black" points="1266.87,-119.3 1256.87,-122.8 1266.87,-126.3 1266.87,-119.3"/>
</g>
<!-- NgChartsModule -->
<g id="node7" class="node">
<title>NgChartsModule</title>
<polygon fill="#8dd3c7" stroke="black" points="1459.71,-84.8 1456.71,-88.8 1435.71,-88.8 1432.71,-84.8 1346.29,-84.8 1346.29,-48.8 1459.71,-48.8 1459.71,-84.8"/>
<text text-anchor="middle" x="1403" y="-62.6" font-family="Times,serif" font-size="14.00">NgChartsModule</text>
</g>
<!-- NgChartsModule&#45;&gt;AppModule -->
<g id="edge6" class="edge">
<title>NgChartsModule&#45;&gt;AppModule</title>
<path fill="none" stroke="black" d="M1403,-84.99C1403,-99.98 1403,-118.8 1403,-118.8 1403,-118.8 1266.72,-118.8 1266.72,-118.8"/>
<polygon fill="black" stroke="black" points="1266.72,-115.3 1256.72,-118.8 1266.72,-122.3 1266.72,-115.3"/>
</g>
<!-- BrowserModule -->
<g id="node8" class="node">
<title>BrowserModule</title>
<polygon fill="#8dd3c7" stroke="black" points="1328.49,-84.8 1325.49,-88.8 1304.49,-88.8 1301.49,-84.8 1221.51,-84.8 1221.51,-48.8 1328.49,-48.8 1328.49,-84.8"/>
<text text-anchor="middle" x="1275" y="-62.6" font-family="Times,serif" font-size="14.00">BrowserModule</text>
</g>
<!-- BrowserModule&#45;&gt;AppModule -->
<g id="edge7" class="edge">
<title>BrowserModule&#45;&gt;AppModule</title>
<path fill="none" stroke="black" d="M1239.17,-84.91C1239.17,-84.91 1239.17,-103.79 1239.17,-103.79"/>
<polygon fill="black" stroke="black" points="1235.67,-103.79 1239.17,-113.79 1242.67,-103.79 1235.67,-103.79"/>
</g>
<!-- FormsModule -->
<g id="node9" class="node">
<title>FormsModule</title>
<polygon fill="#8dd3c7" stroke="black" points="1203.84,-84.8 1200.84,-88.8 1179.84,-88.8 1176.84,-84.8 1108.16,-84.8 1108.16,-48.8 1203.84,-48.8 1203.84,-84.8"/>
<text text-anchor="middle" x="1156" y="-62.6" font-family="Times,serif" font-size="14.00">FormsModule</text>
</g>
<!-- FormsModule&#45;&gt;AppModule -->
<g id="edge8" class="edge">
<title>FormsModule&#45;&gt;AppModule</title>
<path fill="none" stroke="black" d="M1188.42,-84.91C1188.42,-84.91 1188.42,-103.79 1188.42,-103.79"/>
<polygon fill="black" stroke="black" points="1184.92,-103.79 1188.42,-113.79 1191.92,-103.79 1184.92,-103.79"/>
</g>
<!-- AppRoutingModule -->
<g id="node10" class="node">
<title>AppRoutingModule</title>
<polygon fill="#8dd3c7" stroke="black" points="1090.28,-84.8 1087.28,-88.8 1066.28,-88.8 1063.28,-84.8 961.72,-84.8 961.72,-48.8 1090.28,-48.8 1090.28,-84.8"/>
<text text-anchor="middle" x="1026" y="-62.6" font-family="Times,serif" font-size="14.00">AppRoutingModule</text>
</g>
<!-- AppRoutingModule&#45;&gt;AppModule -->
<g id="edge9" class="edge">
<title>AppRoutingModule&#45;&gt;AppModule</title>
<path fill="none" stroke="black" d="M1026,-84.99C1026,-99.98 1026,-118.8 1026,-118.8 1026,-118.8 1163.05,-118.8 1163.05,-118.8"/>
<polygon fill="black" stroke="black" points="1163.05,-122.3 1173.05,-118.8 1163.05,-115.3 1163.05,-122.3"/>
</g>
<!-- NgbModule -->
<g id="node11" class="node">
<title>NgbModule</title>
<polygon fill="#8dd3c7" stroke="black" points="943.66,-84.8 940.66,-88.8 919.66,-88.8 916.66,-84.8 860.34,-84.8 860.34,-48.8 943.66,-48.8 943.66,-84.8"/>
<text text-anchor="middle" x="902" y="-62.6" font-family="Times,serif" font-size="14.00">NgbModule</text>
</g>
<!-- NgbModule&#45;&gt;AppModule -->
<g id="edge10" class="edge">
<title>NgbModule&#45;&gt;AppModule</title>
<path fill="none" stroke="black" d="M902,-84.83C902,-101.2 902,-122.8 902,-122.8 902,-122.8 1163.11,-122.8 1163.11,-122.8"/>
<polygon fill="black" stroke="black" points="1163.11,-126.3 1173.11,-122.8 1163.11,-119.3 1163.11,-126.3"/>
</g>
<!-- HttpClientModule -->
<g id="node12" class="node">
<title>HttpClientModule</title>
<polygon fill="#8dd3c7" stroke="black" points="842.16,-84.8 839.16,-88.8 818.16,-88.8 815.16,-84.8 723.84,-84.8 723.84,-48.8 842.16,-48.8 842.16,-84.8"/>
<text text-anchor="middle" x="783" y="-62.6" font-family="Times,serif" font-size="14.00">HttpClientModule</text>
</g>
<!-- HttpClientModule&#45;&gt;AppModule -->
<g id="edge11" class="edge">
<title>HttpClientModule&#45;&gt;AppModule</title>
<path fill="none" stroke="black" d="M783,-85.1C783,-103.07 783,-127.8 783,-127.8 783,-127.8 1163.19,-127.8 1163.19,-127.8"/>
<polygon fill="black" stroke="black" points="1163.19,-131.3 1173.19,-127.8 1163.19,-124.3 1163.19,-131.3"/>
</g>
<!-- ToastrModule.forRoot() -->
<g id="node13" class="node">
<title>ToastrModule.forRoot()</title>
<polygon fill="#8dd3c7" stroke="black" points="705.69,-84.8 702.69,-88.8 681.69,-88.8 678.69,-84.8 554.31,-84.8 554.31,-48.8 705.69,-48.8 705.69,-84.8"/>
<text text-anchor="middle" x="630" y="-62.6" font-family="Times,serif" font-size="14.00">ToastrModule.forRoot()</text>
</g>
<!-- ToastrModule.forRoot()&#45;&gt;AppModule -->
<g id="edge13" class="edge">
<title>ToastrModule.forRoot()&#45;&gt;AppModule</title>
<path fill="none" stroke="black" d="M630,-84.91C630,-104.14 630,-131.8 630,-131.8 630,-131.8 1162.93,-131.8 1162.93,-131.8"/>
<polygon fill="black" stroke="black" points="1162.93,-135.3 1172.93,-131.8 1162.93,-128.3 1162.93,-135.3"/>
</g>
<!-- NgxSpinnerModule.forRoot(args) -->
<g id="node14" class="node">
<title>NgxSpinnerModule.forRoot(args)</title>
<polygon fill="#8dd3c7" stroke="black" points="536.41,-84.8 533.41,-88.8 512.41,-88.8 509.41,-84.8 329.59,-84.8 329.59,-48.8 536.41,-48.8 536.41,-84.8"/>
<text text-anchor="middle" x="433" y="-62.6" font-family="Times,serif" font-size="14.00">NgxSpinnerModule.forRoot(args)</text>
</g>
<!-- NgxSpinnerModule.forRoot(args)&#45;&gt;AppModule -->
<g id="edge14" class="edge">
<title>NgxSpinnerModule.forRoot(args)&#45;&gt;AppModule</title>
<path fill="none" stroke="black" d="M433,-84.83C433,-105.57 433,-136.8 433,-136.8 433,-136.8 1163.23,-136.8 1163.23,-136.8"/>
<polygon fill="black" stroke="black" points="1163.23,-140.3 1173.23,-136.8 1163.23,-133.3 1163.23,-140.3"/>
</g>
<!-- IawsService -->
<g id="node16" class="node">
<title>IawsService</title>
<ellipse fill="#fdb462" stroke="black" cx="248" cy="-66.8" rx="58.46" ry="18"/>
<text text-anchor="middle" x="248" y="-62.6" font-family="Times,serif" font-size="14.00">IawsService</text>
</g>
<!-- IawsService&#45;&gt;AppModule -->
<g id="edge16" class="edge">
<title>IawsService&#45;&gt;AppModule</title>
<path fill="none" stroke="black" d="M248,-85.09C248,-107.01 248,-140.8 248,-140.8 248,-140.8 1163.14,-140.8 1163.14,-140.8"/>
<polygon fill="black" stroke="black" points="1163.14,-144.3 1173.14,-140.8 1163.14,-137.3 1163.14,-144.3"/>
</g>
<!-- ExporterService -->
<g id="node17" class="node">
<title>ExporterService</title>
<ellipse fill="#fdb462" stroke="black" cx="98" cy="-66.8" rx="73.56" ry="18"/>
<text text-anchor="middle" x="98" y="-62.6" font-family="Times,serif" font-size="14.00">ExporterService</text>
</g>
<!-- ExporterService&#45;&gt;AppModule -->
<g id="edge17" class="edge">
<title>ExporterService&#45;&gt;AppModule</title>
<path fill="none" stroke="black" d="M98,-85.12C98,-108.46 98,-145.8 98,-145.8 98,-145.8 1163.25,-145.8 1163.25,-145.8"/>
<polygon fill="black" stroke="black" points="1163.25,-149.3 1173.25,-145.8 1163.25,-142.3 1163.25,-149.3"/>
</g>
</g>
</svg>
