<?xml version="1.0" encoding="UTF-8" standalone="no"?>
<!DOCTYPE svg PUBLIC "-//W3C//DTD SVG 1.1//EN"
 "http://www.w3.org/Graphics/SVG/1.1/DTD/svg11.dtd">
<!-- Generated by graphviz version 5.0.0 (20220707.1540)
 -->
<!-- Title: dependencies Pages: 1 -->
<svg width="1360pt" height="247pt"
 viewBox="0.00 0.00 1360.00 246.80" xmlns="http://www.w3.org/2000/svg" xmlns:xlink="http://www.w3.org/1999/xlink">
<g id="graph0" class="graph" transform="scale(1 1) rotate(0) translate(4 242.8)">
<title>dependencies</title>
<polygon fill="white" stroke="transparent" points="-4,4 -4,-242.8 1356,-242.8 1356,4 -4,4"/>
<text text-anchor="middle" x="676" y="-8.2" font-family="sans-serif" font-size="14.00">dependencies</text>
<g id="clust1" class="cluster">
<title>cluster_AppModule</title>
<polygon fill="none" stroke="black" stroke-dasharray="1,5" points="8,-32.8 8,-230.8 1344,-230.8 1344,-32.8 8,-32.8"/>
</g>
<g id="clust2" class="cluster">
<title>cluster_AppModule_declarations</title>
<polygon fill="none" stroke="black" points="1214,-40.8 1214,-92.8 1336,-92.8 1336,-40.8 1214,-40.8"/>
</g>
<g id="clust4" class="cluster">
<title>cluster_AppModule_imports</title>
<polygon fill="none" stroke="black" points="16,-40.8 16,-92.8 1206,-92.8 1206,-40.8 16,-40.8"/>
</g>
<g id="clust6" class="cluster">
<title>cluster_AppModule_bootstrap</title>
<polygon fill="none" stroke="black" points="665,-170.8 665,-222.8 789,-222.8 789,-170.8 665,-170.8"/>
</g>
<!-- AppComponent -->
<g id="node1" class="node">
<title>AppComponent</title>
<polygon fill="#ffffb3" stroke="black" points="1327.94,-84.8 1222.06,-84.8 1222.06,-48.8 1327.94,-48.8 1327.94,-84.8"/>
<text text-anchor="middle" x="1275" y="-62.6" font-family="Times,serif" font-size="14.00">AppComponent</text>
</g>
<!-- AppModule -->
<g id="node2" class="node">
<title>AppModule</title>
<polygon fill="#8dd3c7" stroke="black" points="768.66,-149.8 765.66,-153.8 744.66,-153.8 741.66,-149.8 685.34,-149.8 685.34,-113.8 768.66,-113.8 768.66,-149.8"/>
<text text-anchor="middle" x="727" y="-127.6" font-family="Times,serif" font-size="14.00">AppModule</text>
</g>
<!-- AppComponent&#45;&gt;AppModule -->
<g id="edge1" class="edge">
<title>AppComponent&#45;&gt;AppModule</title>
<path fill="none" stroke="black" d="M1275,-84.81C1275,-107.29 1275,-142.8 1275,-142.8 1275,-142.8 779.09,-142.8 779.09,-142.8"/>
<polygon fill="black" stroke="black" points="779.09,-139.3 769.09,-142.8 779.09,-146.3 779.09,-139.3"/>
</g>
<!-- AppComponent  -->
<g id="node11" class="node">
<title>AppComponent </title>
<polygon fill="#80b1d3" stroke="black" points="781.44,-214.8 672.56,-214.8 672.56,-178.8 781.44,-178.8 781.44,-214.8"/>
<text text-anchor="middle" x="727" y="-192.6" font-family="Times,serif" font-size="14.00">AppComponent </text>
</g>
<!-- AppModule&#45;&gt;AppComponent  -->
<g id="edge10" class="edge">
<title>AppModule&#45;&gt;AppComponent </title>
<path fill="none" stroke="black" stroke-dasharray="1,5" d="M727,-149.91C727,-149.91 727,-168.79 727,-168.79"/>
<polygon fill="black" stroke="black" points="723.5,-168.79 727,-178.79 730.5,-168.79 723.5,-168.79"/>
</g>
<!-- BrowserModule -->
<g id="node3" class="node">
<title>BrowserModule</title>
<polygon fill="#8dd3c7" stroke="black" points="1198.49,-84.8 1195.49,-88.8 1174.49,-88.8 1171.49,-84.8 1091.51,-84.8 1091.51,-48.8 1198.49,-48.8 1198.49,-84.8"/>
<text text-anchor="middle" x="1145" y="-62.6" font-family="Times,serif" font-size="14.00">BrowserModule</text>
</g>
<!-- BrowserModule&#45;&gt;AppModule -->
<g id="edge2" class="edge">
<title>BrowserModule&#45;&gt;AppModule</title>
<path fill="none" stroke="black" d="M1145,-84.93C1145,-105.37 1145,-135.8 1145,-135.8 1145,-135.8 778.99,-135.8 778.99,-135.8"/>
<polygon fill="black" stroke="black" points="778.99,-132.3 768.99,-135.8 778.99,-139.3 778.99,-132.3"/>
</g>
<!-- BrowserAnimationsModule -->
<g id="node4" class="node">
<title>BrowserAnimationsModule</title>
<polygon fill="#8dd3c7" stroke="black" points="1073.32,-84.8 1070.32,-88.8 1049.32,-88.8 1046.32,-84.8 900.68,-84.8 900.68,-48.8 1073.32,-48.8 1073.32,-84.8"/>
<text text-anchor="middle" x="987" y="-62.6" font-family="Times,serif" font-size="14.00">BrowserAnimationsModule</text>
</g>
<!-- BrowserAnimationsModule&#45;&gt;AppModule -->
<g id="edge3" class="edge">
<title>BrowserAnimationsModule&#45;&gt;AppModule</title>
<path fill="none" stroke="black" d="M987,-85.07C987,-103.36 987,-128.8 987,-128.8 987,-128.8 778.77,-128.8 778.77,-128.8"/>
<polygon fill="black" stroke="black" points="778.77,-125.3 768.77,-128.8 778.77,-132.3 778.77,-125.3"/>
</g>
<!-- FormsModule -->
<g id="node5" class="node">
<title>FormsModule</title>
<polygon fill="#8dd3c7" stroke="black" points="882.84,-84.8 879.84,-88.8 858.84,-88.8 855.84,-84.8 787.16,-84.8 787.16,-48.8 882.84,-48.8 882.84,-84.8"/>
<text text-anchor="middle" x="835" y="-62.6" font-family="Times,serif" font-size="14.00">FormsModule</text>
</g>
<!-- FormsModule&#45;&gt;AppModule -->
<g id="edge4" class="edge">
<title>FormsModule&#45;&gt;AppModule</title>
<path fill="none" stroke="black" d="M835,-84.81C835,-100.85 835,-121.8 835,-121.8 835,-121.8 778.76,-121.8 778.76,-121.8"/>
<polygon fill="black" stroke="black" points="778.76,-118.3 768.76,-121.8 778.76,-125.3 778.76,-118.3"/>
</g>
<!-- NgbModule -->
<g id="node6" class="node">
<title>NgbModule</title>
<polygon fill="#8dd3c7" stroke="black" points="768.66,-84.8 765.66,-88.8 744.66,-88.8 741.66,-84.8 685.34,-84.8 685.34,-48.8 768.66,-48.8 768.66,-84.8"/>
<text text-anchor="middle" x="727" y="-62.6" font-family="Times,serif" font-size="14.00">NgbModule</text>
</g>
<!-- NgbModule&#45;&gt;AppModule -->
<g id="edge5" class="edge">
<title>NgbModule&#45;&gt;AppModule</title>
<path fill="none" stroke="black" d="M727,-84.91C727,-84.91 727,-103.79 727,-103.79"/>
<polygon fill="black" stroke="black" points="723.5,-103.79 727,-113.79 730.5,-103.79 723.5,-103.79"/>
</g>
<!-- FileSaverModule -->
<g id="node7" class="node">
<title>FileSaverModule</title>
<polygon fill="#8dd3c7" stroke="black" points="667.71,-84.8 664.71,-88.8 643.71,-88.8 640.71,-84.8 554.29,-84.8 554.29,-48.8 667.71,-48.8 667.71,-84.8"/>
<text text-anchor="middle" x="611" y="-62.6" font-family="Times,serif" font-size="14.00">FileSaverModule</text>
</g>
<!-- FileSaverModule&#45;&gt;AppModule -->
<g id="edge6" class="edge">
<title>FileSaverModule&#45;&gt;AppModule</title>
<path fill="none" stroke="black" d="M611,-84.81C611,-100.85 611,-121.8 611,-121.8 611,-121.8 675.12,-121.8 675.12,-121.8"/>
<polygon fill="black" stroke="black" points="675.12,-125.3 685.12,-121.8 675.12,-118.3 675.12,-125.3"/>
</g>
<!-- HttpClientModule -->
<g id="node8" class="node">
<title>HttpClientModule</title>
<polygon fill="#8dd3c7" stroke="black" points="536.16,-84.8 533.16,-88.8 512.16,-88.8 509.16,-84.8 417.84,-84.8 417.84,-48.8 536.16,-48.8 536.16,-84.8"/>
<text text-anchor="middle" x="477" y="-62.6" font-family="Times,serif" font-size="14.00">HttpClientModule</text>
</g>
<!-- HttpClientModule&#45;&gt;AppModule -->
<g id="edge7" class="edge">
<title>HttpClientModule&#45;&gt;AppModule</title>
<path fill="none" stroke="black" d="M477,-85.07C477,-103.36 477,-128.8 477,-128.8 477,-128.8 675.16,-128.8 675.16,-128.8"/>
<polygon fill="black" stroke="black" points="675.16,-132.3 685.16,-128.8 675.16,-125.3 675.16,-132.3"/>
</g>
<!-- ToastrModule.forRoot() -->
<g id="node9" class="node">
<title>ToastrModule.forRoot()</title>
<polygon fill="#8dd3c7" stroke="black" points="399.69,-84.8 396.69,-88.8 375.69,-88.8 372.69,-84.8 248.31,-84.8 248.31,-48.8 399.69,-48.8 399.69,-84.8"/>
<text text-anchor="middle" x="324" y="-62.6" font-family="Times,serif" font-size="14.00">ToastrModule.forRoot()</text>
</g>
<!-- ToastrModule.forRoot()&#45;&gt;AppModule -->
<g id="edge8" class="edge">
<title>ToastrModule.forRoot()&#45;&gt;AppModule</title>
<path fill="none" stroke="black" d="M324,-84.93C324,-105.37 324,-135.8 324,-135.8 324,-135.8 675.01,-135.8 675.01,-135.8"/>
<polygon fill="black" stroke="black" points="675.01,-139.3 685.01,-135.8 675.01,-132.3 675.01,-139.3"/>
</g>
<!-- NgxSpinnerModule.forRoot(args) -->
<g id="node10" class="node">
<title>NgxSpinnerModule.forRoot(args)</title>
<polygon fill="#8dd3c7" stroke="black" points="230.41,-84.8 227.41,-88.8 206.41,-88.8 203.41,-84.8 23.59,-84.8 23.59,-48.8 230.41,-48.8 230.41,-84.8"/>
<text text-anchor="middle" x="127" y="-62.6" font-family="Times,serif" font-size="14.00">NgxSpinnerModule.forRoot(args)</text>
</g>
<!-- NgxSpinnerModule.forRoot(args)&#45;&gt;AppModule -->
<g id="edge9" class="edge">
<title>NgxSpinnerModule.forRoot(args)&#45;&gt;AppModule</title>
<path fill="none" stroke="black" d="M127,-84.81C127,-107.29 127,-142.8 127,-142.8 127,-142.8 675.29,-142.8 675.29,-142.8"/>
<polygon fill="black" stroke="black" points="675.29,-146.3 685.29,-142.8 675.29,-139.3 675.29,-146.3"/>
</g>
</g>
</svg>
