<?xml version="1.0" encoding="UTF-8" standalone="no"?>
<!DOCTYPE svg PUBLIC "-//W3C//DTD SVG 1.1//EN"
 "http://www.w3.org/Graphics/SVG/1.1/DTD/svg11.dtd">
<!-- Generated by graphviz version 5.0.0 (20220707.1540)
 -->
<!-- Title: dependencies Pages: 1 -->
<svg width="1360pt" height="247pt"
 viewBox="0.00 0.00 1360.00 246.80" xmlns="http://www.w3.org/2000/svg" xmlns:xlink="http://www.w3.org/1999/xlink">
<g id="graph0" class="graph" transform="scale(1 1) rotate(0) translate(4 242.8)">
<title>dependencies</title>
<polygon fill="white" stroke="transparent" points="-4,4 -4,-242.8 1356,-242.8 1356,4 -4,4"/>
<text text-anchor="middle" x="676" y="-8.2" font-family="sans-serif" font-size="14.00">dependencies</text>
<g id="clust1" class="cluster">
<title>cluster_AppModule</title>
<polygon fill="none" stroke="black" stroke-dasharray="1,5" points="8,-32.8 8,-230.8 1344,-230.8 1344,-32.8 8,-32.8"/>
</g>
<g id="clust4" class="cluster">
<title>cluster_AppModule_imports</title>
<polygon fill="none" stroke="black" points="146,-40.8 146,-92.8 1336,-92.8 1336,-40.8 146,-40.8"/>
</g>
<g id="clust2" class="cluster">
<title>cluster_AppModule_declarations</title>
<polygon fill="none" stroke="black" points="16,-40.8 16,-92.8 138,-92.8 138,-40.8 16,-40.8"/>
</g>
<g id="clust6" class="cluster">
<title>cluster_AppModule_bootstrap</title>
<polygon fill="none" stroke="black" points="679,-170.8 679,-222.8 803,-222.8 803,-170.8 679,-170.8"/>
</g>
<!-- AppComponent -->
<g id="node1" class="node">
<title>AppComponent</title>
<polygon fill="#ffffb3" stroke="black" points="129.94,-84.8 24.06,-84.8 24.06,-48.8 129.94,-48.8 129.94,-84.8"/>
<text text-anchor="middle" x="77" y="-62.6" font-family="Times,serif" font-size="14.00">AppComponent</text>
</g>
<!-- AppModule -->
<g id="node2" class="node">
<title>AppModule</title>
<polygon fill="#8dd3c7" stroke="black" points="782.66,-149.8 779.66,-153.8 758.66,-153.8 755.66,-149.8 699.34,-149.8 699.34,-113.8 782.66,-113.8 782.66,-149.8"/>
<text text-anchor="middle" x="741" y="-127.6" font-family="Times,serif" font-size="14.00">AppModule</text>
</g>
<!-- AppComponent&#45;&gt;AppModule -->
<g id="edge1" class="edge">
<title>AppComponent&#45;&gt;AppModule</title>
<path fill="none" stroke="black" d="M77,-84.81C77,-107.29 77,-142.8 77,-142.8 77,-142.8 689.21,-142.8 689.21,-142.8"/>
<polygon fill="black" stroke="black" points="689.21,-146.3 699.21,-142.8 689.21,-139.3 689.21,-146.3"/>
</g>
<!-- AppComponent  -->
<g id="node11" class="node">
<title>AppComponent </title>
<polygon fill="#80b1d3" stroke="black" points="795.44,-214.8 686.56,-214.8 686.56,-178.8 795.44,-178.8 795.44,-214.8"/>
<text text-anchor="middle" x="741" y="-192.6" font-family="Times,serif" font-size="14.00">AppComponent </text>
</g>
<!-- AppModule&#45;&gt;AppComponent  -->
<g id="edge10" class="edge">
<title>AppModule&#45;&gt;AppComponent </title>
<path fill="none" stroke="black" stroke-dasharray="1,5" d="M741,-149.91C741,-149.91 741,-168.79 741,-168.79"/>
<polygon fill="black" stroke="black" points="737.5,-168.79 741,-178.79 744.5,-168.79 737.5,-168.79"/>
</g>
<!-- BrowserModule -->
<g id="node3" class="node">
<title>BrowserModule</title>
<polygon fill="#8dd3c7" stroke="black" points="1328.49,-84.8 1325.49,-88.8 1304.49,-88.8 1301.49,-84.8 1221.51,-84.8 1221.51,-48.8 1328.49,-48.8 1328.49,-84.8"/>
<text text-anchor="middle" x="1275" y="-62.6" font-family="Times,serif" font-size="14.00">BrowserModule</text>
</g>
<!-- BrowserModule&#45;&gt;AppModule -->
<g id="edge2" class="edge">
<title>BrowserModule&#45;&gt;AppModule</title>
<path fill="none" stroke="black" d="M1275,-84.81C1275,-107.29 1275,-142.8 1275,-142.8 1275,-142.8 792.9,-142.8 792.9,-142.8"/>
<polygon fill="black" stroke="black" points="792.9,-139.3 782.9,-142.8 792.9,-146.3 792.9,-139.3"/>
</g>
<!-- BrowserAnimationsModule -->
<g id="node4" class="node">
<title>BrowserAnimationsModule</title>
<polygon fill="#8dd3c7" stroke="black" points="1203.32,-84.8 1200.32,-88.8 1179.32,-88.8 1176.32,-84.8 1030.68,-84.8 1030.68,-48.8 1203.32,-48.8 1203.32,-84.8"/>
<text text-anchor="middle" x="1117" y="-62.6" font-family="Times,serif" font-size="14.00">BrowserAnimationsModule</text>
</g>
<!-- BrowserAnimationsModule&#45;&gt;AppModule -->
<g id="edge3" class="edge">
<title>BrowserAnimationsModule&#45;&gt;AppModule</title>
<path fill="none" stroke="black" d="M1117,-84.93C1117,-105.37 1117,-135.8 1117,-135.8 1117,-135.8 792.68,-135.8 792.68,-135.8"/>
<polygon fill="black" stroke="black" points="792.68,-132.3 782.68,-135.8 792.68,-139.3 792.68,-132.3"/>
</g>
<!-- FormsModule -->
<g id="node5" class="node">
<title>FormsModule</title>
<polygon fill="#8dd3c7" stroke="black" points="1012.84,-84.8 1009.84,-88.8 988.84,-88.8 985.84,-84.8 917.16,-84.8 917.16,-48.8 1012.84,-48.8 1012.84,-84.8"/>
<text text-anchor="middle" x="965" y="-62.6" font-family="Times,serif" font-size="14.00">FormsModule</text>
</g>
<!-- FormsModule&#45;&gt;AppModule -->
<g id="edge4" class="edge">
<title>FormsModule&#45;&gt;AppModule</title>
<path fill="none" stroke="black" d="M965,-85.07C965,-103.36 965,-128.8 965,-128.8 965,-128.8 792.87,-128.8 792.87,-128.8"/>
<polygon fill="black" stroke="black" points="792.87,-125.3 782.87,-128.8 792.87,-132.3 792.87,-125.3"/>
</g>
<!-- NgbModule -->
<g id="node6" class="node">
<title>NgbModule</title>
<polygon fill="#8dd3c7" stroke="black" points="898.66,-84.8 895.66,-88.8 874.66,-88.8 871.66,-84.8 815.34,-84.8 815.34,-48.8 898.66,-48.8 898.66,-84.8"/>
<text text-anchor="middle" x="857" y="-62.6" font-family="Times,serif" font-size="14.00">NgbModule</text>
</g>
<!-- NgbModule&#45;&gt;AppModule -->
<g id="edge5" class="edge">
<title>NgbModule&#45;&gt;AppModule</title>
<path fill="none" stroke="black" d="M857,-84.81C857,-100.85 857,-121.8 857,-121.8 857,-121.8 792.88,-121.8 792.88,-121.8"/>
<polygon fill="black" stroke="black" points="792.88,-118.3 782.88,-121.8 792.88,-125.3 792.88,-118.3"/>
</g>
<!-- FileSaverModule -->
<g id="node7" class="node">
<title>FileSaverModule</title>
<polygon fill="#8dd3c7" stroke="black" points="797.71,-84.8 794.71,-88.8 773.71,-88.8 770.71,-84.8 684.29,-84.8 684.29,-48.8 797.71,-48.8 797.71,-84.8"/>
<text text-anchor="middle" x="741" y="-62.6" font-family="Times,serif" font-size="14.00">FileSaverModule</text>
</g>
<!-- FileSaverModule&#45;&gt;AppModule -->
<g id="edge6" class="edge">
<title>FileSaverModule&#45;&gt;AppModule</title>
<path fill="none" stroke="black" d="M741,-84.91C741,-84.91 741,-103.79 741,-103.79"/>
<polygon fill="black" stroke="black" points="737.5,-103.79 741,-113.79 744.5,-103.79 737.5,-103.79"/>
</g>
<!-- HttpClientModule -->
<g id="node8" class="node">
<title>HttpClientModule</title>
<polygon fill="#8dd3c7" stroke="black" points="666.16,-84.8 663.16,-88.8 642.16,-88.8 639.16,-84.8 547.84,-84.8 547.84,-48.8 666.16,-48.8 666.16,-84.8"/>
<text text-anchor="middle" x="607" y="-62.6" font-family="Times,serif" font-size="14.00">HttpClientModule</text>
</g>
<!-- HttpClientModule&#45;&gt;AppModule -->
<g id="edge7" class="edge">
<title>HttpClientModule&#45;&gt;AppModule</title>
<path fill="none" stroke="black" d="M607,-84.81C607,-100.85 607,-121.8 607,-121.8 607,-121.8 689.34,-121.8 689.34,-121.8"/>
<polygon fill="black" stroke="black" points="689.34,-125.3 699.34,-121.8 689.34,-118.3 689.34,-125.3"/>
</g>
<!-- ToastrModule.forRoot() -->
<g id="node9" class="node">
<title>ToastrModule.forRoot()</title>
<polygon fill="#8dd3c7" stroke="black" points="529.69,-84.8 526.69,-88.8 505.69,-88.8 502.69,-84.8 378.31,-84.8 378.31,-48.8 529.69,-48.8 529.69,-84.8"/>
<text text-anchor="middle" x="454" y="-62.6" font-family="Times,serif" font-size="14.00">ToastrModule.forRoot()</text>
</g>
<!-- ToastrModule.forRoot()&#45;&gt;AppModule -->
<g id="edge8" class="edge">
<title>ToastrModule.forRoot()&#45;&gt;AppModule</title>
<path fill="none" stroke="black" d="M454,-85.07C454,-103.36 454,-128.8 454,-128.8 454,-128.8 689.27,-128.8 689.27,-128.8"/>
<polygon fill="black" stroke="black" points="689.27,-132.3 699.27,-128.8 689.27,-125.3 689.27,-132.3"/>
</g>
<!-- NgxSpinnerModule.forRoot(args) -->
<g id="node10" class="node">
<title>NgxSpinnerModule.forRoot(args)</title>
<polygon fill="#8dd3c7" stroke="black" points="360.41,-84.8 357.41,-88.8 336.41,-88.8 333.41,-84.8 153.59,-84.8 153.59,-48.8 360.41,-48.8 360.41,-84.8"/>
<text text-anchor="middle" x="257" y="-62.6" font-family="Times,serif" font-size="14.00">NgxSpinnerModule.forRoot(args)</text>
</g>
<!-- NgxSpinnerModule.forRoot(args)&#45;&gt;AppModule -->
<g id="edge9" class="edge">
<title>NgxSpinnerModule.forRoot(args)&#45;&gt;AppModule</title>
<path fill="none" stroke="black" d="M257,-84.93C257,-105.37 257,-135.8 257,-135.8 257,-135.8 689.32,-135.8 689.32,-135.8"/>
<polygon fill="black" stroke="black" points="689.32,-139.3 699.32,-135.8 689.32,-132.3 689.32,-139.3"/>
</g>
</g>
</svg>
